<svg width="279" height="170" viewBox="0 0 279 170" fill="none" xmlns="http://www.w3.org/2000/svg">
<path d="M97.0956 56.7838C97.0956 56.7838 83.7748 59.3934 76.7781 61.1392C69.7815 62.8806 61.1993 65.7399 52.7196 62.8806C44.2399 60.0214 39.6749 54.2896 38.0092 50.8558C36.3436 47.422 34.1835 41.8283 33.707 37.3079C33.707 37.3079 28.4428 41.1336 21.4283 41.7572C14.4139 42.3807 10.3788 42.6213 8.69981 40.6172C8.69981 40.6172 12.1781 53.6482 14.6588 59.0237C17.1395 64.3992 25.0046 81.6662 42.1868 88.075C59.3689 94.4838 60.1616 94.0606 65.3457 94.4258C70.5297 94.791 78.1276 94.4258 78.1276 94.4258C78.1276 94.4258 73.9546 132.941 73.6918 135.355C73.429 137.769 70.788 162.148 70.788 162.148L153.091 162.923L177.372 160.928L184.031 148.613L177.372 118.164L169.623 109.274C169.623 109.274 168.986 101.85 167.958 97.8152C166.929 93.7846 163.317 81.6085 159.812 75.8766C156.307 70.1403 155.211 66.0338 145.075 61.0235C134.934 56.0131 126.77 56.1067 126.77 56.1067L97.0956 56.7838Z" fill="#002868"/>
<path d="M206.13 42.8307C206.13 42.8307 217.5 42.1181 224.069 47.0973C230.638 52.0765 233.404 61.8699 234.21 64.7114C235.016 67.5528 239.665 84.4856 240.383 87.3849C241.1 90.2842 245.86 110.86 246.814 115.26C247.767 119.66 253.93 149.62 253.93 149.62C253.93 149.62 246.426 153.205 238.922 153.851C231.413 154.492 224.79 154.893 222.862 154.016L220.484 145.483C220.484 145.483 205.564 150.738 191.842 147.825C178.121 144.913 171.957 142.712 166.915 139.595C161.874 136.477 161.589 136.299 161.589 136.299C161.589 136.299 165.552 132.442 167.24 130.144C168.928 127.846 171.921 121.958 171.752 113.688C171.752 113.688 165.316 124.827 157.438 123.09C149.559 121.357 144.758 115.194 145.409 109.297C146.059 103.4 149.159 95.0983 153.937 83.0913C158.716 71.0843 163.388 59.2557 163.388 59.2557C163.388 59.2557 167.859 59.6966 173.204 61.2955C178.423 62.8587 180.499 63.4244 180.499 63.4244L189.771 42.9729L193.481 42.8572C193.481 42.8572 190.021 53.8624 194.621 53.6086C199.218 53.3547 201.204 50.6779 202.843 48.6426C204.482 46.6073 206.13 42.8307 206.13 42.8307Z" fill="#04F7F7"/>
<path d="M206.321 33.2909C206.321 33.2909 210.957 33.0412 212.24 30.8144L211.532 41.1826L219.379 41.4187L219.499 42.7948L226.296 42.844C226.296 42.844 226.198 19.5379 225.659 14.9818C225.12 10.4257 224.764 3.42482 218.604 1.51867C212.449 -0.387491 208.343 1.04188 206.691 3.16182C205.038 5.28175 205.034 5.63828 205.034 5.63828C205.034 5.63828 199.774 2.23095 194.381 4.44441C191.192 5.75378 188.729 8.9607 187.037 14.1002L192.087 15.2358L194.795 12.3809L194.546 15.9082L206.005 18.2063L207.858 14.3759C207.858 14.3759 206.668 18.9234 207.025 22.5264C207.025 22.5264 211.523 22.2992 211.982 26.1294C212.44 29.9595 208.508 31.487 207.06 30.8457C205.613 30.2044 206.45 30.6495 206.45 30.6495L206.321 33.2909Z" fill="#002868"/>
<path d="M168.679 59.5758C168.679 59.5758 171.894 56.4982 172.473 54.2358C173.048 51.9733 174.17 47.2615 176.402 44.4869C178.633 41.7079 180.232 39.8418 183.033 39.6814C185.834 39.5211 190.235 41.7747 191.9 43.6854C193.566 45.596 194.804 47.7605 194.354 49.4351C193.904 51.1052 192.239 51.9603 192.239 51.9603C192.239 51.9603 193.49 56.5252 188.582 56.6944C188.582 56.6944 188.124 62.1325 182.12 59.4157L180.499 63.3884C180.494 63.3839 171.169 60.0969 168.679 59.5758Z" fill="white"/>
<path d="M206.321 42.933L206.459 30.9573C206.459 30.9573 211.594 31.9636 212.022 26.9399C212.022 26.9399 213.002 22.491 207.034 22.531L207.475 16.1981L206.014 18.2153L194.555 15.9171L194.795 12.5012L192.177 15.2669L189.91 14.715C189.91 14.715 188.262 22.7135 187.825 25.6351C187.384 28.5567 187.122 34.7161 188.939 35.5266L192.965 37.1032L193.13 37.3929L193.878 37.4864L193.477 42.8308L192.671 45.5564C192.671 45.5564 195.584 50.3928 192.234 51.9694C192.234 51.9694 192.987 54.3968 196.969 53.319C200.955 52.2279 205.787 44.9816 206.321 42.933Z" fill="white"/>
<path d="M233.021 154.492L232.892 156.122C232.892 156.122 231.707 158.924 228.848 162.041C225.988 165.159 225.966 168.397 228.393 169.367C232.059 170.833 233.667 164.637 237.474 163.052C239.888 162.045 247.598 163.618 249.41 164.482C251.223 165.346 255.151 168.308 257.275 168.365C259.4 168.419 262.05 168.521 262.272 166.668C262.272 166.668 264.512 167.025 265.92 165.671C267.327 164.317 266.263 162.861 266.263 162.861C266.263 162.861 267.483 162.241 266.33 160.487C265.176 158.732 263.274 157.61 260.313 156.576C257.351 155.543 253.258 154.238 251.824 153.013C250.39 151.789 250.234 151.085 250.234 151.085C250.234 151.085 238.227 154.822 233.021 154.492Z" fill="white"/>
<path d="M162.168 136.971C162.168 136.971 152.205 136.611 147.693 136.971C143.182 137.332 134.956 138.107 129.447 143.429C123.938 148.756 123.947 153.868 123.096 162.384H169.151C169.151 162.384 179.497 164.762 192.319 164.37C205.145 163.978 210.708 162.696 213.46 161.164C216.217 159.627 217.901 159.235 219.121 156.607C220.341 153.98 221.352 149.584 221.352 149.584L220.479 145.447C220.479 145.447 210.316 149.905 194.212 147.99C175.716 145.79 162.168 136.971 162.168 136.971Z" fill="white"/>
<path d="M186.863 40.6836L189.393 35.3884L193.276 37.0942L190.288 42.5856L186.863 40.6836Z" fill="#002868"/>
<path d="M119.912 50.8251L119.137 35.4374C119.137 35.4374 125.719 37.4196 126.013 30.267C126.013 30.267 125.657 25.7776 120.816 25.9691C120.816 25.9691 117.756 26.4902 116.963 28.3608C116.963 28.3608 115.453 27.1626 116.081 21.1101V20.3442C116.081 20.3442 114.108 22.7091 111.294 21.3106C108.479 19.9122 107.646 19.8455 107.179 17.9082C107.179 17.9082 104.716 21.7826 98.5475 20.8518L98.2402 36.0524C98.2402 36.0524 97.2025 43.5521 104.066 44.3225L104.052 50.6511L111.931 62.4846L119.912 50.8251Z" fill="white"/>
<path d="M30.5582 38.7869C30.5582 38.7869 29.5873 36.1991 29.4359 31.6519C29.2845 27.1047 30.6205 22.7449 30.9724 21.0258C31.3242 19.3067 32.4733 13.428 29.0885 13.1162C25.7037 12.8045 24.8085 14.951 24.4701 17.4451C24.136 19.9391 23.2765 22.5354 23.2765 22.5354C23.2765 22.5354 18.088 14.4921 15.9948 12.0159C13.9016 9.54411 12.5477 8.85379 10.6549 9.67772C8.76653 10.5016 9.10948 12.7509 9.10948 12.7509C9.10948 12.7509 6.99844 11.8379 5.69797 13.0314C4.39306 14.225 3.95216 15.2582 4.54004 16.483C4.54004 16.483 2.81205 16.06 1.60956 17.0932C0.411535 18.1264 0.18884 19.8367 2.37558 22.9899C4.56231 26.1431 8.74426 31.1623 10.3164 33.1219C11.893 35.0816 13.1668 36.7781 13.7413 38.5329C14.3158 40.2876 14.6231 42.1584 14.6231 42.1584C14.6231 42.1584 19.4419 42.3361 23.7218 41.1916C28.0107 40.047 30.5582 38.7869 30.5582 38.7869Z" fill="white"/>
<path d="M103.936 50.678L97.0867 56.7839L101.906 80.1877L103.366 78.0009L111.989 119.34L120.397 78.0009L121.76 80.4682L126.748 56.098L119.809 50.8515L103.936 50.678Z" fill="white"/>
<path d="M100.24 12.1002C100.24 12.1002 95.7238 12.4919 95.0291 15.9345C94.3343 19.3772 98.3203 20.767 98.3203 20.767C98.3203 20.767 102.409 21.5685 104.502 19.8984C106.595 18.2283 107.094 17.6138 107.094 17.6138C107.094 17.6138 107.566 20.6201 111.067 21.2258C114.567 21.8315 115.974 20.0233 115.974 20.0233C115.974 20.0233 114.656 25.7593 116.607 28.1242C116.607 28.1242 117.849 25.7684 120.597 25.8887C123.345 26.0089 124.125 26.9486 124.125 26.9486C124.125 26.9486 126.365 23.27 126.904 20.6156C127.443 17.9613 127.536 14.8835 125.79 13.2802C124.044 11.6769 123.425 10.5368 120.014 10.4388C120.014 10.4388 118.522 6.76009 114.919 5.53979C111.316 4.3195 108.92 5.40191 107.205 7.83359C107.205 7.83359 105.223 6.38592 102.734 6.69322C100.244 7.00052 99.496 9.02268 99.2778 9.46804C99.0462 9.91341 99.5183 11.6771 100.24 12.1002Z" fill="white"/>
<path d="M109.842 39.7486C109.842 39.7486 109.022 38.0782 109.842 36.7555C110.661 35.4327 111.828 34.7335 111.828 34.7335C111.828 34.7335 111.325 33.8476 110.403 33.9767C109.486 34.1059 109.285 34.8137 109.143 35.6599C109 36.5061 108.778 37.2186 108.02 37.2943C107.263 37.3745 105.758 37.1122 105.192 37.4996C104.631 37.8871 104.604 38.5995 105.473 39.2898C106.341 39.9801 108.283 40.773 109.842 39.7486Z" fill="#002868"/>
<path d="M14.5252 42.2161C14.5252 42.2161 13.6701 37.5796 12.8773 37.3257C12.0846 37.0719 8.47714 39.4099 8.80671 40.6347C9.14518 41.855 13.7191 42.4298 14.5252 42.2161Z" fill="#002868"/>
<path d="M29.4271 34.3239L30.3801 39.0628C30.3801 39.0628 33.9297 37.2947 33.6001 36.0566C33.2706 34.823 30.2109 34.2081 29.4271 34.3239Z" fill="#002868"/>
<path d="M107.094 71.9213L109.285 77.0656L106.769 93.9538L111.993 118.988L117.525 92.4842L115.267 77.0656L117.093 71.6856L112.145 62.9119L107.094 71.9213Z" fill="#002868"/>
<path d="M119.168 130.888C119.168 131.814 118.415 132.567 117.489 132.567C116.562 132.567 115.81 131.814 115.81 130.888C115.81 129.962 116.562 129.209 117.489 129.209C118.415 129.205 119.168 129.957 119.168 130.888Z" fill="white"/>
<path d="M119.168 149.063C119.168 149.99 118.415 150.742 117.489 150.742C116.562 150.742 115.81 149.99 115.81 149.063C115.81 148.137 116.562 147.384 117.489 147.384C118.415 147.384 119.168 148.137 119.168 149.063Z" fill="white"/>
<path d="M242.547 96.2964L247.931 120.422C247.931 120.422 236.619 121.014 234.677 110.691C232.735 100.372 239.843 96.5592 242.547 96.2964Z" fill="#002868"/>
<path d="M200.482 4.01242C198.688 3.58487 196.55 3.56271 194.385 4.45343C191.197 5.7628 188.734 8.96929 187.041 14.1088L188.979 14.5454L189.914 14.4872C192.047 3.0146 200.482 4.01242 200.482 4.01242Z" fill="white"/>
<path d="M218.609 1.52306C212.454 -0.383096 208.347 1.04628 206.695 3.16621C205.822 4.28853 205.417 4.90755 205.221 5.24602L206.459 6.61778L208.931 6.80045C208.931 6.80045 211.572 -1.04698 220.795 2.55601C220.158 2.13737 219.441 1.78137 218.609 1.52306Z" fill="white"/>
<path d="M113.694 65.6597L109.846 71.4538L112.024 77.0656L108.034 101.748L106.769 93.4684L109.285 77.0656L107.094 71.9213L112.145 62.9119L113.694 65.6597Z" fill="white"/>
<path d="M228.852 162.789H209.951C209.728 162.789 209.545 162.607 209.545 162.384C209.545 162.161 209.728 161.979 209.951 161.979H228.852C229.075 161.979 229.257 162.161 229.257 162.384C229.257 162.607 229.075 162.789 228.852 162.789Z" fill="#001940"/>
<path d="M170.238 162.789H25.5212C25.2985 162.789 25.1159 162.607 25.1159 162.384C25.1159 162.161 25.2985 161.979 25.5212 161.979H170.238C170.46 161.979 170.643 162.161 170.643 162.384C170.643 162.607 170.46 162.789 170.238 162.789Z" fill="#001940"/>
<path d="M278.008 162.789H266.493C266.44 162.789 266.396 162.607 266.396 162.384C266.396 162.161 266.44 161.979 266.493 161.979H278.008C278.061 161.979 278.104 162.161 278.104 162.384C278.104 162.607 278.061 162.789 278.008 162.789Z" fill="#001940"/>
<path d="M190.426 42.8214C190.368 42.8214 190.306 42.8081 190.252 42.7814C190.052 42.6879 189.967 42.4429 190.061 42.2425L192.43 37.2857L189.584 35.9274L187.228 40.8621C187.135 41.0669 186.894 41.1469 186.689 41.0534C186.485 40.9599 186.404 40.715 186.498 40.5145L189.028 35.2145C189.126 35.0186 189.371 34.9297 189.566 35.0232L193.143 36.729C193.241 36.7735 193.312 36.858 193.352 36.956C193.388 37.0584 193.379 37.1698 193.334 37.2678L190.791 42.59C190.72 42.737 190.577 42.8214 190.426 42.8214Z" fill="#001940"/>
<path d="M192.965 37.4997C192.907 37.4997 192.844 37.486 192.791 37.4593C192.586 37.3658 192.506 37.1208 192.599 36.9204L193.259 35.54L190.413 34.1769L189.753 35.5578C189.66 35.7582 189.415 35.8427 189.215 35.7492C189.01 35.6556 188.93 35.4152 189.023 35.2103L189.856 33.4645C189.9 33.3665 189.985 33.2954 190.083 33.2553C190.19 33.2197 190.292 33.2241 190.395 33.2731L193.971 34.9833C194.069 35.0278 194.14 35.1122 194.18 35.2146C194.216 35.3126 194.212 35.4286 194.163 35.5221L193.33 37.2679C193.263 37.4149 193.116 37.4997 192.965 37.4997Z" fill="#001940"/>
<path d="M179.252 61.6608C179.194 61.6608 179.132 61.647 179.078 61.6203C178.931 61.549 178.842 61.4066 178.847 61.2463L178.945 55.9197C178.949 55.6971 179.172 55.5191 179.359 55.5235C179.581 55.528 179.76 55.7104 179.755 55.9376L179.675 60.3734L183.029 57.5633C183.198 57.4208 183.456 57.4383 183.599 57.612C183.746 57.7813 183.719 58.0397 183.55 58.1822L179.515 61.5625C179.439 61.6293 179.345 61.6608 179.252 61.6608Z" fill="#001940"/>
<path d="M79.0895 47.2037C78.9292 47.2037 78.7778 47.106 78.7154 46.9501C78.6308 46.7408 78.7333 46.5089 78.9381 46.4243L89.8762 42.0598C90.0811 41.9886 90.3172 42.078 90.4018 42.2873C90.4864 42.4966 90.384 42.7325 90.1791 42.8127L79.2409 47.1771C79.192 47.195 79.1385 47.2037 79.0895 47.2037Z" fill="#001940"/>
<path d="M88.9588 38.105C88.9499 38.105 70.4851 37.624 70.4851 37.624C70.2624 37.6195 70.0842 37.4283 70.0932 37.2056C70.0976 36.9874 70.2802 36.8137 70.4985 36.8137C70.5074 36.8137 88.9721 37.2943 88.9721 37.2943C89.1948 37.2988 89.373 37.4905 89.3641 37.7131C89.3551 37.9314 89.177 38.105 88.9588 38.105Z" fill="#001940"/>
<path d="M89.6849 33.5495C89.627 33.5495 89.5691 33.5361 89.5156 33.5139L79.9403 29.0959C79.7399 29.0023 79.6508 28.7618 79.7398 28.5614C79.8334 28.3565 80.0739 28.2673 80.2788 28.3609L89.8541 32.7788C90.059 32.8724 90.1436 33.1129 90.0545 33.3134C89.9832 33.4648 89.8363 33.5495 89.6849 33.5495Z" fill="#001940"/>
<path d="M60.3443 64.4573C58.7499 64.4573 57.151 64.3371 55.5566 64.0476C43.1131 61.8297 34.7581 51.4615 33.2082 36.3102C33.1859 36.0875 33.3463 35.8919 33.569 35.8696C33.7961 35.8741 33.9876 36.012 34.0099 36.2302C35.5197 50.9984 43.6297 61.1036 55.6946 63.2547C62.5042 64.4617 69.4119 62.6538 76.1012 60.9035C78.2523 60.3379 80.4791 59.7544 82.6436 59.2912C86.8657 58.3916 91.8804 57.3403 97.0467 56.3872C97.2738 56.3338 97.4787 56.4943 97.5188 56.7126C97.5589 56.9308 97.4119 57.14 97.1937 57.1801C92.0363 58.1287 87.0304 59.18 82.8128 60.0841C80.6706 60.5428 78.4527 61.1216 76.3061 61.6873C71.0864 63.0501 65.7243 64.4573 60.3443 64.4573Z" fill="#001940"/>
<path d="M158.035 73.1418C157.897 73.1418 157.759 73.0661 157.683 72.9369C155.55 69.1959 154.463 68.1225 152.922 66.7953C144.095 59.2063 135.865 57.9236 128.605 56.7968C127.973 56.6944 127.34 56.6009 126.721 56.4985C126.503 56.4628 126.352 56.2535 126.387 56.0353C126.423 55.817 126.637 55.6656 126.85 55.7012C127.469 55.8037 128.097 55.9016 128.73 55.9996C136.101 57.1442 144.451 58.4447 153.447 66.1851C155.055 67.5702 156.191 68.6883 158.382 72.5407C158.494 72.7367 158.427 72.9817 158.231 73.0931C158.168 73.1287 158.102 73.1418 158.035 73.1418Z" fill="#001940"/>
<path d="M121.795 80.8737C121.648 80.8737 121.515 80.7933 121.443 80.6597L112.046 63.6337L102.351 80.6645C102.266 80.8115 102.11 80.8913 101.937 80.8646C101.772 80.8378 101.638 80.7088 101.603 80.544L96.7258 56.8597C96.6946 56.7172 96.7481 56.5702 96.8594 56.4722L103.709 50.5398C103.798 50.4641 103.905 50.4374 104.03 50.4463C104.146 50.4597 104.248 50.5223 104.31 50.6203L112.046 62.0706L119.506 50.6246C119.569 50.5311 119.666 50.4641 119.773 50.4463C119.876 50.4285 119.996 50.4552 120.085 50.522L127.024 55.7728C127.149 55.8664 127.211 56.0224 127.175 56.1738L122.183 80.5397C122.147 80.7045 122.014 80.8335 121.849 80.8602C121.835 80.8691 121.813 80.8737 121.795 80.8737ZM97.5675 56.9354L102.177 79.3328L111.574 62.823L103.892 51.4575L97.5675 56.9354ZM112.523 62.823L121.617 79.3106L126.338 56.2673L119.947 51.4349L112.523 62.823Z" fill="#001940"/>
<path d="M109.245 77.484C109.085 77.484 108.933 77.3863 108.871 77.2348L106.622 71.8413C106.537 71.6364 106.635 71.3962 106.84 71.3116C107.045 71.2314 107.286 71.3246 107.366 71.5295L109.512 76.6738L115.03 76.6646L116.669 71.7522C116.741 71.5384 116.981 71.4273 117.177 71.4986C117.386 71.5699 117.502 71.7967 117.431 72.0105L115.703 77.1992C115.65 77.3639 115.494 77.4753 115.32 77.4753L109.245 77.484Z" fill="#001940"/>
<path d="M107.593 45.1908C103.268 45.1908 98.9081 43.5383 98.0752 39.5211C97.8926 38.6527 97.8481 36.809 97.8036 35.0275L97.7679 33.6736C97.7144 31.9678 97.9817 21.5686 97.995 21.1277C97.9995 20.9095 98.1821 20.7358 98.4003 20.7358C98.6319 20.7403 98.8101 20.932 98.8056 21.1547C98.8012 21.2616 98.5295 31.9723 98.5785 33.6557L98.6141 35.0188C98.6586 36.7646 98.7032 38.5638 98.868 39.3654C99.7364 43.5296 105.036 44.83 109.57 44.2688C111.133 44.0773 112.327 43.8237 113.32 43.4764C113.529 43.4051 113.756 43.5118 113.837 43.7256C113.908 43.9349 113.801 44.1666 113.587 44.2423C112.541 44.6119 111.294 44.8747 109.673 45.0751C108.987 45.1464 108.292 45.1908 107.593 45.1908Z" fill="#001940"/>
<path d="M119.845 51.2567C119.631 51.2567 119.453 51.0874 119.444 50.8692L118.66 35.3215C118.647 35.0988 118.821 34.9072 119.043 34.8983C119.279 34.8938 119.457 35.0632 119.466 35.2814L120.25 50.8292C120.264 51.0519 120.09 51.2434 119.867 51.2524C119.858 51.2568 119.849 51.2567 119.845 51.2567Z" fill="#001940"/>
<path d="M121.096 36.1635C119.965 36.1635 118.838 35.7979 117.881 35.0675C117.703 34.9295 117.672 34.6758 117.805 34.5021C117.943 34.324 118.197 34.2928 118.371 34.4265C120.032 35.7002 122.326 35.6557 123.938 34.3329C124.86 33.5758 125.434 32.498 125.55 31.3089C125.666 30.1198 125.314 28.9528 124.552 28.0309C122.989 26.1203 120.157 25.8443 118.25 27.412C117.649 27.9063 117.182 28.5522 116.906 29.2826C116.825 29.483 116.603 29.594 116.38 29.5183C116.171 29.4382 116.068 29.2067 116.144 28.9929C116.473 28.1289 117.021 27.3674 117.734 26.7839C119.983 24.9357 123.328 25.2563 125.176 27.5098C126.071 28.601 126.49 29.9772 126.352 31.3846C126.214 32.7919 125.537 34.0566 124.45 34.9562C123.475 35.7623 122.285 36.1635 121.096 36.1635Z" fill="#001940"/>
<path d="M98.472 24.8244C98.4141 24.8244 98.3562 24.8115 98.3027 24.7892C98.0978 24.6912 98.0132 24.4552 98.1067 24.2503C98.1156 24.2325 99.0865 22.1926 101.964 22.9586C102.177 23.0121 102.307 23.2349 102.253 23.4531C102.195 23.6714 101.986 23.8002 101.759 23.7424C99.5319 23.1634 98.846 24.5842 98.8371 24.5931C98.7703 24.7356 98.6234 24.8244 98.472 24.8244Z" fill="#001940"/>
<path d="M112.412 25.0515C112.291 25.0515 112.171 24.9978 112.091 24.8953C110.198 22.477 108.341 23.6264 108.256 23.6754C108.069 23.7956 107.82 23.742 107.695 23.5505C107.575 23.3635 107.633 23.1141 107.82 22.9938C107.842 22.9805 110.39 21.4036 112.728 24.3965C112.866 24.5746 112.835 24.8287 112.657 24.9623C112.585 25.0202 112.501 25.0515 112.412 25.0515Z" fill="#001940"/>
<path d="M103.972 51.2569C103.745 51.2524 103.567 51.0699 103.567 50.8472L103.647 44.3224C103.651 44.0998 103.825 43.9709 104.057 43.9219C104.279 43.9263 104.457 44.1089 104.457 44.3316L104.377 50.8559C104.373 51.0786 104.195 51.2569 103.972 51.2569Z" fill="#001940"/>
<path d="M106.822 93.8736C106.542 93.8379 106.39 93.6286 106.422 93.4104L108.849 77.0167C108.884 76.794 109.121 76.6428 109.308 76.674C109.53 76.7052 109.682 76.9097 109.651 77.1324L107.228 93.5217C107.192 93.731 107.018 93.8736 106.822 93.8736Z" fill="#001940"/>
<path d="M117.199 92.885C116.999 92.885 116.821 92.7337 116.798 92.5288L114.923 77.1146C114.897 76.8919 115.057 76.6916 115.275 76.6649C115.538 76.6604 115.698 76.7985 115.725 77.0168L117.6 92.431C117.627 92.6536 117.466 92.8539 117.248 92.8807C117.23 92.8851 117.212 92.885 117.199 92.885Z" fill="#001940"/>
<path d="M71.9236 95.2323C70.0887 95.2323 68.187 95.1386 66.1918 94.9426C43.3847 92.7202 24.047 80.2546 15.7187 62.4089C12.7481 56.0402 10.7751 49.1949 8.86453 42.5723L8.33012 40.7239C8.26776 40.5101 8.39246 40.283 8.60624 40.2251C8.81556 40.1627 9.04715 40.2875 9.10504 40.5012L9.63946 42.354C11.5412 48.9454 13.5052 55.7641 16.4491 62.0705C24.6571 79.6579 43.7454 91.9454 66.2675 94.141C70.5697 94.5597 74.4355 94.5197 78.0875 94.0254C78.3146 93.9808 78.515 94.1498 78.5417 94.3681C78.5729 94.5908 78.417 94.7958 78.1943 94.8226C76.1813 95.0987 74.1015 95.2323 71.9236 95.2323Z" fill="#001940"/>
<path d="M14.9304 42.7769C11.3586 42.7769 8.57508 42.1401 8.31232 40.6214C8.08518 39.2987 9.48808 38.0605 12.6012 36.8402C12.806 36.76 13.0421 36.8623 13.1267 37.0672C13.2069 37.2765 13.1045 37.5129 12.8996 37.593C10.3521 38.5906 8.97148 39.6458 9.11399 40.4831C9.32777 41.7123 14.2045 42.6388 21.6732 41.3517C24.9645 40.786 27.9974 39.9133 30.2064 38.8935C32.5624 37.8068 33.3062 36.8624 33.2171 36.3413C33.0612 35.415 31.3287 35.0678 29.9035 34.9387C29.6809 34.9164 29.5161 34.7203 29.5384 34.4977C29.5606 34.2794 29.7254 34.1412 29.9793 34.1323C32.4956 34.3639 33.8139 35.041 34.0143 36.2034C34.2058 37.3079 33.0033 38.4924 30.5449 39.628C28.2691 40.6746 25.1694 41.5698 21.8069 42.1532C19.4776 42.5496 17.0637 42.7769 14.9304 42.7769Z" fill="#001940"/>
<path d="M107.909 40.6037C107.468 40.6037 107.027 40.5411 106.591 40.4075C105.602 40.1091 104.836 39.5167 104.596 38.8531C104.386 38.2786 104.462 37.7178 104.809 37.2769C105.246 36.7291 106.043 36.4617 106.894 36.5597C107.976 36.6978 108.078 36.6219 108.296 36.4571C108.515 36.2967 108.617 36.2214 108.813 35.1436C108.965 34.3019 109.463 33.6204 110.114 33.3665C110.63 33.1616 111.191 33.2551 111.681 33.6292C112.198 34.0256 112.505 34.8764 112.496 35.9052C112.483 37.4328 111.802 38.8444 110.67 39.6773C109.846 40.2874 108.884 40.6037 107.909 40.6037ZM106.533 37.3526C106.07 37.3526 105.66 37.5128 105.442 37.7845C105.268 37.9982 105.241 38.2656 105.353 38.5773C105.473 38.9114 105.985 39.3831 106.822 39.6325C107.366 39.7928 108.782 40.0646 110.189 39.0314C111.116 38.3455 111.677 37.1789 111.686 35.9052C111.69 35.0501 111.441 34.4754 111.187 34.2794C110.924 34.0745 110.652 34.0212 110.403 34.1281C110.016 34.275 109.704 34.7338 109.606 35.295C109.379 36.5642 109.196 36.8048 108.777 37.1121C108.332 37.4461 108.025 37.5174 106.791 37.3704C106.707 37.3615 106.617 37.3526 106.533 37.3526Z" fill="#001940"/>
<path d="M109.953 40.0695C109.811 40.0695 109.677 39.9939 109.601 39.8603C108.087 37.1525 110.283 34.9655 111.655 34.1906C111.851 34.0748 112.095 34.1504 112.207 34.3419C112.318 34.5379 112.251 34.7829 112.055 34.8943C111.922 34.9745 108.809 36.7872 110.31 39.4727C110.421 39.6687 110.345 39.9138 110.154 40.0251C110.091 40.0518 110.02 40.0695 109.953 40.0695Z" fill="#001940"/>
<path d="M122.642 33.812C122.579 33.812 122.521 33.7984 122.464 33.7672L118.673 31.8923C118.558 31.8344 118.478 31.7234 118.455 31.5987C118.433 31.4695 118.478 31.3404 118.567 31.2468L122.014 27.7191C122.174 27.5588 122.423 27.5589 122.588 27.7148C122.749 27.8707 122.749 28.1245 122.593 28.2893L119.533 31.416L122.824 33.0461C123.025 33.1441 123.105 33.3889 123.007 33.5893C122.936 33.7319 122.789 33.812 122.642 33.812Z" fill="#001940"/>
<path d="M201.676 148.863C178.682 148.863 161.317 136.958 161.099 136.802C160.916 136.673 160.872 136.424 161.001 136.241C161.13 136.059 161.388 136.014 161.562 136.143C161.829 136.33 188.956 154.906 220.199 145.295C220.417 145.215 220.639 145.349 220.702 145.563C220.769 145.776 220.648 146.003 220.435 146.066C213.946 148.065 207.621 148.863 201.676 148.863Z" fill="#001940"/>
<path d="M161.335 136.882C161.219 136.882 161.103 136.833 161.023 136.735C160.88 136.566 160.903 136.308 161.076 136.165C170.269 128.501 171.017 120.769 171.618 114.556C171.672 114 171.721 113.461 171.779 112.935C171.801 112.713 172.006 112.583 172.224 112.574C172.447 112.601 172.607 112.797 172.585 113.02C172.527 113.541 172.473 114.075 172.424 114.632C171.841 120.658 171.044 128.911 161.593 136.785C161.517 136.847 161.424 136.882 161.335 136.882Z" fill="#001940"/>
<path d="M189.17 36.257C189.05 36.257 188.925 36.2034 188.849 36.0965C188.257 35.3171 187.634 33.8919 187.438 32.8542C186.819 29.6386 187.295 26.3697 187.754 23.2032L187.816 22.78C188.141 20.5131 189.273 14.8705 189.286 14.8126C189.33 14.5943 189.526 14.4429 189.762 14.4964C189.981 14.5409 190.123 14.7548 190.079 14.9731C190.065 15.0265 188.938 20.6467 188.618 22.8913L188.556 23.3145C188.106 26.4098 187.642 29.6165 188.235 32.6985C188.413 33.6159 188.974 34.9209 189.495 35.6068C189.633 35.7849 189.598 36.0386 189.415 36.1722C189.344 36.2256 189.259 36.257 189.17 36.257Z" fill="#001940"/>
<path d="M196.225 37.8914C195.392 37.8914 194.59 37.8688 193.967 37.8466C193.673 37.8332 193.383 37.8111 193.094 37.7844C192.871 37.7621 192.706 37.5617 192.733 37.339C192.76 37.1163 192.943 36.9825 193.174 36.978C193.446 37.0047 193.726 37.0274 193.998 37.0363C195.347 37.0987 197.316 37.1029 198.679 37.0093C198.924 36.9514 199.097 37.1607 199.111 37.3834C199.129 37.6061 198.959 37.8023 198.737 37.8157C197.98 37.8736 197.084 37.8914 196.225 37.8914Z" fill="#001940"/>
<path d="M199.436 20.6291C199.124 20.5356 198.888 20.6471 198.647 21.7917C198.38 23.0654 198.683 23.3329 198.973 23.3596C199.262 23.3863 199.605 23.0254 199.707 22.1035C199.814 21.1816 199.845 20.7494 199.436 20.6291Z" fill="#001940"/>
<path d="M190.916 19.2664C190.604 19.164 190.368 19.2665 190.092 20.3977C189.78 21.6625 190.074 21.9431 190.364 21.9743C190.653 22.0055 191.005 21.6626 191.139 20.7452C191.272 19.8277 191.326 19.4001 190.916 19.2664Z" fill="#001940"/>
<path d="M110.225 26.6683C109.9 26.6238 109.686 26.7662 109.619 27.9331C109.544 29.2335 109.882 29.4562 110.176 29.4383C110.465 29.4205 110.75 29.0151 110.715 28.0888C110.679 27.158 110.648 26.7262 110.225 26.6683Z" fill="#001940"/>
<path d="M100.841 26.5793C100.52 26.5259 100.302 26.6595 100.191 27.8219C100.07 29.1179 100.405 29.3495 100.694 29.345C100.983 29.3361 101.282 28.9396 101.282 28.0133C101.277 27.0869 101.26 26.655 100.841 26.5793Z" fill="#001940"/>
<path d="M189.437 17.2084C189.308 17.2084 189.175 17.146 189.099 17.0258C188.979 16.8387 189.028 16.5894 189.215 16.4647C189.869 16.0327 190.693 15.73 192.248 16.349C192.457 16.4336 192.555 16.6695 192.475 16.8744C192.39 17.0837 192.154 17.1772 191.949 17.1014C190.685 16.5937 190.123 16.8431 189.665 17.1415C189.589 17.186 189.513 17.2084 189.437 17.2084Z" fill="#001940"/>
<path d="M208.036 31.3668C207.933 31.3668 207.831 31.3622 207.724 31.3533C206.882 31.2999 206.076 31.0196 205.39 30.5431C205.208 30.4139 205.163 30.1643 205.288 29.9772C205.417 29.7902 205.666 29.7503 205.853 29.875C206.419 30.2669 207.083 30.5029 207.777 30.5474C208.797 30.6276 209.768 30.2844 210.539 29.6119C211.305 28.9394 211.759 28.0086 211.826 26.9932C211.893 25.9778 211.559 24.998 210.886 24.2275C210.214 23.4615 209.287 23.0074 208.272 22.9406C207.546 22.896 206.766 23.0699 206.103 23.4529C205.911 23.5642 205.662 23.4974 205.551 23.3059C205.439 23.1144 205.506 22.8649 205.698 22.7535C206.495 22.2859 207.408 22.0634 208.325 22.1346C209.554 22.2148 210.681 22.767 211.496 23.6934C212.311 24.6242 212.712 25.8087 212.632 27.0423C212.552 28.276 211.999 29.4027 211.069 30.2177C210.222 30.9659 209.154 31.3668 208.036 31.3668Z" fill="#001940"/>
<path d="M209.082 29.1801C209.002 29.1801 208.922 29.1578 208.851 29.1088L205.898 27.0559C205.796 26.9847 205.729 26.8641 205.724 26.7349C205.72 26.6102 205.778 26.4903 205.876 26.4057L208.9 23.9292C209.06 23.7912 209.323 23.8089 209.465 23.9871C209.608 24.1563 209.581 24.4149 209.408 24.5529L206.798 26.6906L209.31 28.4364C209.492 28.5655 209.537 28.8152 209.412 29.0022C209.332 29.1225 209.207 29.1801 209.082 29.1801Z" fill="#001940"/>
<path d="M192.92 45.1151C192.59 45.035 192.466 44.8079 192.532 44.5941L193.094 42.7057L193.481 37.4505C193.494 37.2367 193.673 37.0764 193.882 37.0764C194.136 37.0942 194.301 37.2901 194.283 37.5083L193.882 42.8527L193.307 44.8303C193.254 44.9995 193.094 45.1151 192.92 45.1151Z" fill="#001940"/>
<path d="M195.031 54.0226C194.604 54.0226 194.172 53.9825 193.726 53.8934C193.005 53.7553 192.346 52.8022 192.221 52.6152C192.101 52.4281 192.15 52.1788 192.337 52.0541C192.524 51.9294 192.773 51.9784 192.898 52.1654C193.125 52.5084 193.593 53.0427 193.878 53.0962C200.897 54.4189 205.76 42.7547 205.809 42.6345C205.894 42.4296 206.138 42.3315 206.334 42.4162C206.539 42.5008 206.637 42.7371 206.553 42.942C206.361 43.4274 201.934 54.0226 195.031 54.0226Z" fill="#001940"/>
<path d="M195.174 31.3628C194.675 31.3628 194.136 31.2423 193.557 31.0018C193.352 30.9127 193.254 30.6769 193.339 30.4721C193.423 30.2672 193.659 30.1736 193.869 30.2537C194.742 30.6189 195.481 30.6457 196.078 30.3429C197.075 29.8307 197.392 28.5256 197.392 28.5123C197.441 28.2941 197.659 28.1606 197.877 28.2096C198.095 28.2586 198.229 28.4767 198.18 28.695C198.167 28.7618 197.788 30.3738 196.452 31.0596C196.064 31.2601 195.632 31.3628 195.174 31.3628Z" fill="#001940"/>
<path d="M206.183 43.2001C205.951 43.1956 205.773 43.0083 205.778 42.7856L206.054 31.0639C206.058 30.8412 206.263 30.645 206.468 30.6673C206.691 30.6717 206.869 30.8591 206.864 31.0817L206.588 42.8034C206.579 43.0261 206.401 43.2001 206.183 43.2001Z" fill="#001940"/>
<path d="M191.036 43.4094C190.836 43.4094 190.662 43.2624 190.635 43.0575C190.604 42.8348 190.76 42.6302 190.978 42.6035C191.994 42.4654 192.417 42.4338 193.472 42.416C193.699 42.416 193.878 42.5943 193.882 42.817C193.887 43.0397 193.704 43.2223 193.481 43.2267C192.466 43.2445 192.061 43.2759 191.085 43.405C191.067 43.405 191.054 43.4094 191.036 43.4094Z" fill="#001940"/>
<path d="M191.014 27.7953C190.827 27.7953 190.662 27.6661 190.622 27.4835C190.404 26.5348 189.972 24.2633 190.769 23.6487C191.255 23.2746 192.283 23.6175 193.072 23.9827L193.989 18.9411C194.025 18.7229 194.243 18.5583 194.457 18.6162C194.675 18.6518 194.822 18.8655 194.782 19.0837L193.766 24.6551C193.744 24.7843 193.664 24.8914 193.548 24.9448C193.437 25.0072 193.294 24.9983 193.183 24.9404C192.386 24.5174 191.446 24.2188 191.246 24.2989C191.019 24.4771 191.09 25.9424 191.406 27.3008C191.459 27.519 191.321 27.7372 191.103 27.7862C191.076 27.7906 191.045 27.7953 191.014 27.7953Z" fill="#001940"/>
<path d="M229.525 170C228.055 170 226.63 168.998 226.26 167.577C225.895 166.17 226.701 164.936 227.409 163.849C227.565 163.609 227.716 163.378 227.85 163.15C228.22 162.518 228.821 161.729 229.458 160.897C230.669 159.311 232.036 157.517 232.5 156.007L232.615 154.461C232.633 154.238 232.829 154.042 233.052 154.091C233.275 154.109 233.439 154.301 233.422 154.528L233.292 156.162C232.771 157.899 231.355 159.757 230.104 161.395C229.485 162.21 228.897 162.981 228.549 163.569C228.411 163.805 228.251 164.05 228.091 164.299C227.44 165.297 226.772 166.326 227.044 167.386C227.365 168.61 228.803 169.452 230.068 169.136C230.696 168.989 231.311 168.583 231.952 167.915C232.486 167.35 232.949 166.7 233.404 166.072C233.773 165.564 234.152 165.034 234.571 164.544C235.617 163.315 236.953 162.095 238.989 162.264C243.224 162.634 246.747 163.35 249.758 164.464C250.728 164.825 251.713 165.328 252.75 165.867C255.485 167.283 258.308 168.753 261.043 167.497C261.395 167.337 261.622 167.163 261.747 166.963C261.992 166.548 261.814 165.974 261.586 165.609C260.789 164.33 259.458 163.426 258.17 162.549L257.881 162.353C256.634 161.494 255.204 160.701 253.507 159.93C251.935 159.209 250.069 158.412 248.154 157.962C247.936 157.908 247.802 157.695 247.851 157.476C247.9 157.263 248.105 157.134 248.337 157.174C250.323 157.637 252.234 158.452 253.842 159.191C255.583 159.984 257.053 160.803 258.335 161.685L258.62 161.881C259.912 162.763 261.377 163.765 262.268 165.185C262.633 165.773 262.869 166.66 262.437 167.386C262.228 167.733 261.88 168.014 261.377 168.241C258.295 169.653 255.151 168.031 252.376 166.593C251.356 166.067 250.394 165.573 249.472 165.23C246.529 164.144 243.073 163.44 238.913 163.079C237.234 162.941 236.134 163.952 235.176 165.079C234.78 165.546 234.41 166.058 234.054 166.553C233.586 167.203 233.105 167.88 232.531 168.481C231.783 169.274 231.034 169.746 230.251 169.937C230.015 169.973 229.77 170 229.525 170Z" fill="#001940"/>
<path d="M263.31 167.074C262.993 167.074 262.713 167.042 262.486 166.998C262.268 166.953 262.129 166.735 262.174 166.521C262.219 166.303 262.428 166.156 262.651 166.205C262.749 166.232 265.118 166.681 266.133 164.668C266.325 164.29 266.32 163.885 266.111 163.426C265.051 161.079 259.065 158.05 251.548 156.055C251.334 155.997 251.205 155.779 251.263 155.561C251.32 155.347 251.543 155.227 251.757 155.276C258.295 157.008 265.496 160.099 266.85 163.092C267.158 163.774 267.162 164.428 266.859 165.034C266.044 166.65 264.459 167.074 263.31 167.074Z" fill="#001940"/>
<path d="M230.143 154.858C225.699 154.858 222.857 154.39 222.791 154.377C222.644 154.35 222.519 154.243 222.474 154.1C212.975 123.655 210.89 76.9542 210.873 76.4865C210.864 76.2639 211.037 76.0772 211.26 76.0638C211.474 76.1039 211.67 76.2286 211.683 76.4513C211.701 76.919 213.772 123.272 223.169 153.615C225.187 153.909 239.282 155.633 253.472 149.344C252.572 144.783 242.248 92.6578 235.911 72.5853C235.8 72.2423 235.644 71.61 235.434 70.7638C234.125 65.5085 230.651 51.5418 223.864 47.4044C219.624 44.8257 215.273 43.2226 206.668 43.2226C206.446 43.2226 206.263 43.0399 206.263 42.8172C206.263 42.5945 206.446 42.4119 206.668 42.4119C215.46 42.4119 219.927 44.0553 224.287 46.7141C231.359 51.0253 234.891 65.2193 236.223 70.5681C236.428 71.392 236.583 72.0064 236.686 72.3404C243.304 93.2814 254.22 148.943 254.331 149.504C254.367 149.691 254.273 149.874 254.1 149.949C245.134 153.989 236.165 154.858 230.143 154.858Z" fill="#001940"/>
<path d="M266.334 163.391C266.227 163.391 266.116 163.346 266.04 163.261C265.889 163.101 265.898 162.843 266.058 162.691C266.089 162.66 266.494 162.25 266.374 161.569C266.227 160.727 265.31 159.378 261.751 157.743C260.152 157.008 258.625 156.514 257.151 156.033C254.069 155.035 251.405 154.171 249.74 151.544C249.62 151.357 249.677 151.103 249.864 150.983C250.052 150.862 250.301 150.916 250.426 151.107C251.935 153.49 254.349 154.274 257.4 155.263C258.901 155.748 260.451 156.251 262.09 157.009C265.225 158.452 266.935 159.948 267.18 161.457C267.358 162.58 266.646 163.261 266.615 163.284C266.53 163.355 266.432 163.391 266.334 163.391Z" fill="#001940"/>
<path d="M123.096 162.789C122.86 162.785 122.686 162.594 122.691 162.371C122.878 155.285 123.679 148.15 128.262 143.933C136.8 136.081 145.948 136.281 154.779 136.477C157.131 136.531 159.571 136.589 161.932 136.477C162.159 136.473 162.341 136.642 162.355 136.865C162.364 137.087 162.19 137.275 161.967 137.288C159.576 137.39 157.126 137.341 154.761 137.284C146.068 137.097 137.107 136.891 128.81 144.529C124.45 148.542 123.679 155.49 123.501 162.397C123.497 162.616 123.314 162.789 123.096 162.789Z" fill="#001940"/>
<path d="M158.231 123.29C157.22 123.29 156.196 123.138 155.153 122.813C150.628 121.419 147.56 119.072 146.037 115.843C142.959 109.336 146.598 100.447 149.248 93.9582C149.747 92.7379 150.214 91.5935 150.602 90.5558C153.937 81.6129 163.134 59.0103 163.228 58.7831C163.295 58.6184 163.459 58.5339 163.638 58.5339C163.78 58.5473 178.058 59.9502 187.803 67.8109C187.919 67.9044 187.972 68.0558 187.946 68.2028C187.923 68.3097 185.812 78.9939 181.715 92.2346C176.9 107.805 168.394 123.29 158.231 123.29ZM163.86 59.3755C162.782 62.0254 154.485 82.4543 151.359 90.845C150.971 91.8827 150.499 93.0364 149.996 94.27C147.4 100.621 143.846 109.319 146.767 115.5C148.197 118.52 151.096 120.72 155.394 122.047C169.53 126.376 179.154 97.7839 180.949 92.0076C184.69 79.9026 186.77 69.9486 187.108 68.2963C178.33 61.3352 165.931 59.6205 163.86 59.3755Z" fill="#001940"/>
<path d="M183.607 58.4142C183.554 58.4142 183.505 58.4007 183.456 58.3828C181.283 57.4921 179.296 56.4498 177.559 55.2918C177.372 55.1671 177.323 54.9178 177.448 54.7308C177.577 54.5437 177.827 54.4947 178.009 54.6194C179.697 55.7507 181.635 56.7619 183.759 57.6348C183.964 57.7194 184.062 57.9553 183.977 58.1602C183.919 58.3205 183.768 58.4142 183.607 58.4142Z" fill="#001940"/>
<path d="M189.5 57.1004C189.233 57.1004 188.934 57.0603 188.618 56.9712C188.404 56.9089 188.279 56.6861 188.337 56.4724C188.4 56.2631 188.614 56.1384 188.836 56.1918C190.524 56.6862 191.228 55.2789 191.838 53.6845L191.954 53.3814C192.617 51.7202 191.624 50.5176 188.302 47.7608C187.286 46.9191 186.217 46.3895 185.086 45.8328C184.668 45.6235 184.244 45.4184 183.83 45.1913C183.634 45.0844 183.559 44.8392 183.666 44.6433C183.772 44.4473 184.017 44.3764 184.213 44.4789C184.623 44.7015 185.037 44.9016 185.447 45.1065C186.569 45.6587 187.732 46.2378 188.818 47.1419C191.847 49.6538 193.651 51.3152 192.706 53.6845L192.595 53.9737C192.163 55.1094 191.397 57.1004 189.5 57.1004Z" fill="#001940"/>
<path d="M168.345 60.1242C168.243 60.1242 168.136 60.0839 168.056 60.0038C167.9 59.8434 167.904 59.5851 168.06 59.4292C168.1 59.3936 172.099 55.4387 172.808 52.2677C175.226 41.4142 180.615 39.7932 183.608 39.7932C188.195 39.7932 193.722 43.7393 194.662 46.799C195.775 50.4332 193.049 52.0899 193.023 52.1077C192.836 52.219 192.586 52.161 192.47 51.965C192.359 51.7735 192.421 51.5285 192.613 51.4127C192.702 51.3592 194.813 50.0502 193.887 47.0395C193.045 44.2916 187.803 40.6083 183.608 40.6083C180.851 40.6083 175.89 42.1448 173.596 52.4461C172.834 55.8531 168.799 59.8437 168.63 60.0129C168.55 60.0842 168.443 60.1242 168.345 60.1242Z" fill="#001940"/>
<path d="M180.499 64.0386C180.165 63.9496 180.045 63.7222 180.111 63.5085C180.592 62.012 181.986 59.8342 182.044 59.7407C182.164 59.5537 182.409 59.5004 182.605 59.6207C182.792 59.7409 182.846 59.9902 182.726 60.1817C182.712 60.204 181.332 62.3552 180.882 63.7581C180.828 63.9318 180.672 64.0386 180.499 64.0386Z" fill="#001940"/>
<path d="M189.326 164.811C164.8 164.811 157.723 157.173 157.429 156.839C157.277 156.67 157.295 156.416 157.46 156.269C157.629 156.118 157.883 156.131 158.03 156.3C158.101 156.381 165.236 164 189.375 164C190.052 164 190.738 163.996 191.441 163.978C217.402 163.528 219.909 157.926 220.947 148.751C220.973 148.533 221.134 148.386 221.397 148.395C221.615 148.422 221.775 148.622 221.753 148.845C220.697 158.175 218.016 164.326 191.455 164.789C190.733 164.807 190.025 164.811 189.326 164.811Z" fill="#001940"/>
<path d="M184.806 60.743C183.015 60.743 181.505 59.6031 181.43 59.5452C181.252 59.4071 181.22 59.1531 181.354 58.9794C181.492 58.8012 181.746 58.7701 181.92 58.9037C181.937 58.917 183.781 60.311 185.598 59.8344C186.681 59.5449 187.549 58.6273 188.186 57.1131C188.662 55.973 187.847 54.4324 187.277 53.9247C185.674 52.5039 183.616 51.4706 181.091 50.2726C180.891 50.1791 180.806 49.9386 180.9 49.7337C180.998 49.5333 181.243 49.4528 181.439 49.5419C184.017 50.7667 186.128 51.8223 187.816 53.3232C188.515 53.9422 189.598 55.8487 188.934 57.4297C188.195 59.1934 187.139 60.2667 185.803 60.6229C185.469 60.6987 185.131 60.743 184.806 60.743Z" fill="#001940"/>
<path d="M206.664 33.6965C206.459 33.6965 206.281 33.5406 206.263 33.3268C206.241 33.1086 206.406 32.908 206.628 32.8858C212.975 32.2801 217.339 25.3501 217.001 16.4117C216.881 13.2496 215.888 10.8446 214.039 9.268C211.033 6.69825 206.753 7.1658 206.713 7.1747C206.624 7.17916 206.504 7.15713 206.419 7.09033C206.072 6.81866 197.734 0.489932 191.005 7.20602C188.039 10.1588 187.513 13.0313 187.42 13.9843L192.145 14.7507L194.568 12.145C194.684 12.0159 194.871 11.9758 195.027 12.0515C195.183 12.1228 195.281 12.2788 195.267 12.4525L195.04 15.5479L205.889 17.8413L207.466 14.1983C207.546 14.0024 207.755 13.8956 207.96 13.9713C208.16 14.0336 208.276 14.2384 208.236 14.4388C208.223 14.4967 206.998 20.3666 207.434 22.4375C207.479 22.6558 207.341 22.8696 207.123 22.9186C206.878 22.9587 206.686 22.825 206.642 22.6067C206.406 21.48 206.597 19.44 206.851 17.6586L206.504 18.4606C206.428 18.6387 206.241 18.7364 206.049 18.6963L194.528 16.2603C194.332 16.2158 194.194 16.0332 194.207 15.8328L194.376 13.5303L192.591 15.4496C192.501 15.5476 192.355 15.5878 192.23 15.5744L186.93 14.715C186.734 14.6838 186.596 14.5191 186.587 14.3231C186.583 14.1673 186.551 10.4838 190.426 6.618C197.191 -0.12481 205.626 5.50899 206.78 6.34182C207.63 6.27056 211.599 6.10585 214.565 8.63997C216.591 10.3724 217.682 12.9735 217.811 16.3716C218.163 25.7555 213.491 33.0328 206.704 33.683C206.691 33.6963 206.677 33.6965 206.664 33.6965Z" fill="#001940"/>
<path d="M219.388 41.9177C219.37 41.9177 211.518 41.5923 211.518 41.5923C211.407 41.5879 211.309 41.5391 211.233 41.4545C211.158 41.3698 211.122 41.2627 211.131 41.1513L211.928 30.9258C211.946 30.7031 212.138 30.4804 212.365 30.5561C212.587 30.5739 212.752 30.7656 212.734 30.9928L211.968 40.7995L219.401 41.107C219.624 41.1203 219.798 41.3075 219.789 41.5301C219.78 41.7439 219.602 41.9177 219.388 41.9177Z" fill="#001940"/>
<path d="M226.3 43.249C226.296 43.249 219.504 43.2003 219.504 43.2003C219.281 43.1959 219.103 43.0177 219.103 42.795V37.0944C219.103 36.8717 219.286 36.6891 219.508 36.6891C219.731 36.6891 219.914 36.8717 219.914 37.0944V42.394L225.886 42.4388L225.69 35.4017C225.654 34.1547 225.663 32.9079 225.672 31.6609L225.677 30.7836C225.703 26.2676 225.73 21.5957 225.401 17.0174L225.338 16.1623C225.058 12.0828 224.71 7.0055 221.771 4.01266C220.501 2.71665 218.702 1.79918 216.257 1.2113C214.231 0.721403 207.443 -0.400931 205.609 5.75845C205.546 5.97223 205.315 6.09708 205.105 6.03028C204.891 5.96793 204.771 5.74085 204.834 5.52707C206.459 0.0936318 211.906 -0.659016 216.453 0.423218C219.045 1.04673 220.974 2.03512 222.354 3.44247C225.498 6.64909 225.859 11.8913 226.149 16.1045L226.207 16.9547C226.541 21.5643 226.514 26.2498 226.487 30.7836L226.483 31.6609C226.474 32.899 226.465 34.1327 226.505 35.3708L226.71 42.8306C226.714 42.942 226.67 43.0489 226.594 43.1247C226.509 43.2093 226.407 43.249 226.3 43.249Z" fill="#001940"/>
<path d="M30.3623 39.4013C30.2109 39.4013 30.0684 39.3125 29.9971 39.17C28.8437 36.765 28.0642 29.768 30.0684 22.3883C31.1684 18.3311 31.2575 15.7705 30.3312 14.5636C29.8546 13.9401 29.0841 13.6503 27.9039 13.6503C25.1827 13.6503 24.8844 16.0197 24.5414 18.7676C24.2698 20.9276 23.9892 23.1588 22.4304 24.3747C19.344 26.7752 20.3505 30.7302 20.3951 30.8994C20.453 31.1132 20.3238 31.3356 20.11 31.3935C19.8963 31.4469 19.6736 31.3224 19.6157 31.1086C19.5667 30.9216 18.4221 26.4725 21.9316 23.7379C23.2276 22.7269 23.4904 20.6606 23.7398 18.6654C24.0827 15.9353 24.4746 12.8352 27.9039 12.8352C29.3424 12.8397 30.3445 13.2408 30.9769 14.0647C32.077 15.5077 32.0369 18.2197 30.8522 22.5932C28.7145 30.4672 29.8725 37.0319 30.732 38.8133C30.83 39.0137 30.7453 39.2542 30.5405 39.3522C30.4826 39.3878 30.4202 39.4013 30.3623 39.4013Z" fill="#001940"/>
<path d="M17.8967 26.1652C17.7853 26.1652 17.6696 26.116 17.5894 26.0225C14.3471 22.2547 11.1271 17.3782 8.9983 13.9533C8.77117 13.5837 8.5574 13.2181 8.45051 12.7995C8.22783 11.8909 8.61082 10.8311 9.42583 10.1007C10.4502 9.17885 11.9065 8.88917 13.2293 9.34789C14.4184 9.75317 15.3804 10.9425 15.9994 11.8065C17.0905 13.3252 18.0703 14.6032 18.9343 15.73C20.5866 17.8811 22.0119 19.7428 23.437 22.2591C23.5484 22.4551 23.4771 22.7046 23.2856 22.8115C23.0896 22.9183 22.8446 22.8471 22.7333 22.6601C21.3349 20.1883 19.9943 18.438 18.293 16.2245C17.4246 15.0933 16.4403 13.8108 15.3447 12.2832C14.788 11.5172 13.9419 10.4526 12.971 10.1186C11.9199 9.75784 10.7708 9.98946 9.96916 10.7109C9.37238 11.2454 9.08739 11.9937 9.23882 12.6172C9.31453 12.9201 9.48377 13.2095 9.68864 13.5301C11.4211 16.3137 14.8325 21.5734 18.2084 25.5015C18.3554 25.6707 18.3331 25.9291 18.1639 26.0717C18.0793 26.134 17.9902 26.1652 17.8967 26.1652Z" fill="#001940"/>
<path d="M13.1444 29.247C13.0331 29.247 12.9173 29.1979 12.8371 29.1044C9.74185 25.5058 6.82915 21.3861 4.18368 16.8612C3.88529 16.3535 3.61811 15.8503 3.61366 15.2624C3.60475 14.3361 4.27278 13.4365 4.93638 12.9599C6.24575 12.0113 7.85348 11.9715 9.24747 12.8577C9.43452 12.978 9.49243 13.2274 9.37218 13.4144C9.24748 13.6015 9.00253 13.6591 8.81548 13.5388C7.22998 12.5234 5.90725 13.2539 5.41289 13.6102C4.9319 13.9531 4.41974 14.6169 4.4242 15.2537C4.42865 15.6412 4.63353 16.0241 4.88294 16.4472C7.51058 20.932 10.3921 25.007 13.4562 28.5699C13.5987 28.7391 13.5809 28.9975 13.4117 29.1401C13.3315 29.2158 13.2379 29.247 13.1444 29.247Z" fill="#001940"/>
<path d="M14.4361 42.5187C14.2357 42.5187 14.0575 42.3673 14.0353 42.1625C13.6523 38.9469 11.8574 35.9184 10.3076 34.1503C7.67548 31.1574 2.86113 25.6838 0.661036 21.3504C0.278023 20.5933 -0.118366 19.7115 0.0330575 18.7717C0.17112 17.9122 0.776813 17.1329 1.64527 16.6876C2.46474 16.2689 3.37328 15.9394 4.48224 16.3135C4.69156 16.3848 4.80738 16.6161 4.73167 16.8254C4.65596 17.0348 4.42881 17.1462 4.21949 17.0794C3.44901 16.8122 2.77648 17.0216 2.0149 17.4091C1.38249 17.7342 0.928261 18.3089 0.834734 18.9057C0.723393 19.6049 1.05741 20.3485 1.38698 20.9899C3.54254 25.2297 8.31236 30.6543 10.8777 33.5714C12.5522 35.4775 14.4361 38.6708 14.8414 42.069C14.8681 42.2916 14.7078 42.4964 14.4896 42.5187C14.4673 42.5142 14.4539 42.5187 14.4361 42.5187Z" fill="#001940"/>
<path d="M112.029 119.745C111.837 119.745 111.672 119.606 111.632 119.424L103.006 78.0854C102.961 77.8672 103.099 77.649 103.317 77.6044C103.545 77.5688 103.749 77.7025 103.794 77.9163L112.02 117.335L120.036 77.9206C120.081 77.7024 120.268 77.5554 120.513 77.6044C120.731 77.649 120.874 77.8624 120.829 78.0807L112.425 119.419C112.385 119.607 112.22 119.74 112.029 119.745Z" fill="#001940"/>
<path d="M146.553 102.826C146.348 102.826 146.175 102.674 146.152 102.465L143.966 82.281C143.943 82.0583 144.104 81.8579 144.326 81.8356C144.554 81.8267 144.745 81.9735 144.772 82.1961L146.959 102.38C146.981 102.603 146.82 102.803 146.598 102.826C146.584 102.821 146.571 102.826 146.553 102.826Z" fill="#001940"/>
<path d="M150.281 137.23C150.076 137.23 149.902 137.078 149.88 136.869L147.889 118.471C147.867 118.249 148.027 118.048 148.25 118.026C148.468 118.022 148.669 118.164 148.696 118.387L150.686 136.785C150.709 137.007 150.548 137.208 150.326 137.23C150.312 137.226 150.299 137.23 150.281 137.23Z" fill="#001940"/>
<path d="M70.779 162.789C70.5162 162.763 70.3514 162.562 70.3781 162.34L79.0672 82.1919C79.0939 81.9692 79.2943 81.8265 79.5126 81.8309C79.7352 81.8532 79.8956 82.0536 79.8733 82.2763L71.1843 162.424C71.162 162.638 70.9838 162.789 70.779 162.789Z" fill="#001940"/>
<path d="M112.514 22.0945C111.953 22.0945 111.374 22.0234 110.804 21.8675C109.201 21.4399 107.415 20.3979 106.952 18.7634C106.199 19.5962 104.76 20.8118 102.538 21.2616C99.3537 21.8985 95.5725 21.2174 94.7486 18.2067C94.6016 17.6767 94.5883 17.0711 94.6952 16.4031C94.8778 15.2719 95.3766 14.2294 96.0891 13.4634C97.4119 12.0472 99.5362 11.6151 102.235 12.203C102.453 12.2475 102.591 12.4658 102.542 12.684C102.498 12.9023 102.289 13.0672 102.061 12.9915C99.6253 12.4615 97.8171 12.8088 96.6815 14.0158C96.0713 14.666 95.6527 15.5613 95.4923 16.5366C95.3988 17.0889 95.4122 17.5785 95.5235 17.9927C96.3163 20.8876 100.347 20.8789 102.373 20.4692C105.464 19.8457 106.885 17.5388 106.898 17.5165C106.992 17.3562 107.179 17.2758 107.366 17.3382C107.544 17.3916 107.66 17.5652 107.646 17.7522C107.522 19.5159 109.383 20.6473 111.009 21.0837C112.43 21.4712 114.545 21.391 115.859 19.9347C116.01 19.7654 116.269 19.7519 116.429 19.9034C116.598 20.0548 116.607 20.3088 116.46 20.4735C115.525 21.5246 114.073 22.0945 112.514 22.0945Z" fill="#001940"/>
<path d="M116.758 29.0375C116.629 29.0375 116.5 28.9749 116.424 28.8591C114.46 25.9465 115.85 19.7202 115.868 19.6579C115.921 19.4441 116.144 19.3238 116.353 19.3638C116.571 19.4173 116.705 19.631 116.656 19.8492C116.643 19.9116 115.342 25.7951 117.101 28.4094C117.226 28.5965 117.177 28.8458 116.99 28.9705C116.914 29.015 116.834 29.0375 116.758 29.0375Z" fill="#001940"/>
<path d="M100.516 12.7595C100.467 12.7595 100.418 12.7509 100.369 12.7286C99.162 12.261 98.7701 10.751 99.015 9.56631C99.211 8.61768 99.8211 7.81147 100.783 7.23249C103.193 5.78506 106.51 6.25276 108.341 8.30589C108.492 8.47068 108.479 8.72911 108.31 8.87608C108.141 9.02305 107.887 9.014 107.74 8.84476C106.159 7.07667 103.286 6.67158 101.197 7.92751C100.427 8.38623 99.9548 8.99194 99.8033 9.72679C99.6252 10.5953 99.8968 11.6731 100.658 11.9714C100.868 12.0516 100.97 12.2875 100.89 12.4968C100.828 12.6616 100.676 12.7595 100.516 12.7595Z" fill="#001940"/>
<path d="M124.151 27.4612C124.076 27.4612 124 27.4388 123.933 27.3943C123.746 27.274 123.693 27.0246 123.813 26.8376C125.853 23.6666 128.81 17.7389 125.621 13.6371C124.877 12.6796 123.871 11.9356 122.717 11.4769C122.147 11.2542 121.546 11.1431 120.967 11.0406C120.936 11.0362 120.838 11.027 120.713 11.0137C119.729 10.9112 119.6 10.9023 119.484 10.6618L119.341 10.3769C117.996 7.73147 116.113 6.17282 113.583 5.60275C111.619 5.15739 109.062 5.51807 107.878 7.86959C107.775 8.07445 107.535 8.14991 107.334 8.04747C107.134 7.94504 107.054 7.70466 107.156 7.50425C108.305 5.22399 110.897 4.17736 113.766 4.81423C116.505 5.42884 118.624 7.17919 120.063 10.0072C120.317 10.1542 120.638 10.19 120.798 10.2034C120.949 10.2212 121.069 10.2342 121.11 10.2386C121.733 10.35 122.374 10.4658 123.016 10.7197C124.307 11.2274 125.43 12.0646 126.262 13.1335C129.754 17.6317 126.654 23.9247 124.494 27.2738C124.414 27.394 124.281 27.4612 124.151 27.4612Z" fill="#001940"/>
<path d="M102.765 35.8695C102.68 35.8695 102.591 35.8426 102.52 35.7847C101.522 35.0276 99.8834 33.7808 100.912 32.3244C101.255 31.839 101.678 31.4513 102.084 31.0727C102.578 30.614 103.046 30.1822 103.362 29.5988C104.564 27.3853 103.072 24.8777 103.059 24.8555C102.943 24.664 103.005 24.4146 103.197 24.2988C103.384 24.183 103.633 24.2408 103.754 24.4323C103.825 24.5525 105.504 27.3586 104.079 29.9863C103.7 30.6855 103.161 31.1841 102.64 31.6651C102.248 32.0303 101.874 32.3733 101.58 32.792C101.099 33.4734 101.701 34.1371 102.903 35.0501L103.023 35.1388C103.201 35.2769 103.233 35.531 103.099 35.7047C103.005 35.816 102.885 35.8695 102.765 35.8695Z" fill="#001940"/>
<path d="M112.269 162.789C112.046 162.789 111.868 162.611 111.864 162.389L111.623 119.344C111.623 119.121 111.801 118.939 112.024 118.934C112.251 118.934 112.429 119.113 112.434 119.335L112.674 162.379C112.674 162.607 112.492 162.789 112.269 162.789Z" fill="#001940"/>
<path d="M117.489 132.972C116.251 132.972 115.244 131.965 115.244 130.727C115.244 129.489 116.251 128.483 117.489 128.483C118.727 128.483 119.733 129.489 119.733 130.727C119.733 131.965 118.722 132.972 117.489 132.972ZM117.489 129.293C116.696 129.293 116.055 129.935 116.055 130.727C116.055 131.52 116.696 132.162 117.489 132.162C118.281 132.162 118.923 131.52 118.923 130.727C118.923 129.939 118.277 129.293 117.489 129.293Z" fill="#001940"/>
<path d="M117.489 151.152C116.251 151.152 115.244 150.145 115.244 148.907C115.244 147.669 116.251 146.663 117.489 146.663C118.727 146.663 119.733 147.669 119.733 148.907C119.733 150.141 118.722 151.152 117.489 151.152ZM117.489 147.473C116.696 147.473 116.055 148.115 116.055 148.907C116.055 149.7 116.696 150.341 117.489 150.341C118.281 150.341 118.923 149.7 118.923 148.907C118.923 148.115 118.277 147.473 117.489 147.473Z" fill="#001940"/>
<path d="M219.348 35.0233C219.125 35.0233 218.943 34.8406 218.943 34.6179V29.7816C218.943 29.5589 219.125 29.3762 219.348 29.3762C219.571 29.3762 219.753 29.5589 219.753 29.7816V34.6179C219.753 34.8406 219.571 35.0233 219.348 35.0233Z" fill="#001940"/>
<path d="M202.486 20.8074C202.335 20.8074 202.184 20.7183 202.117 20.5669C200.754 17.4983 198.211 18.3666 198.104 18.4023C197.908 18.4824 197.663 18.3712 197.587 18.1574C197.512 17.9481 197.619 17.7164 197.832 17.6407C197.864 17.6273 201.199 16.4918 202.861 20.2329C202.95 20.4377 202.856 20.6783 202.656 20.7674C202.598 20.7986 202.544 20.8074 202.486 20.8074Z" fill="#001940"/>
<path d="M245.794 120.827C240.414 120.827 235.599 116.671 234.334 110.557C232.896 103.573 236.468 97.1288 242.467 95.8952C242.685 95.8462 242.899 95.9932 242.943 96.2114C242.988 96.4296 242.85 96.6435 242.627 96.6881C236.98 97.8505 233.76 103.743 235.127 110.396C236.463 116.863 242.021 120.996 247.776 119.811C247.98 119.758 248.207 119.909 248.252 120.128C248.297 120.346 248.159 120.56 247.936 120.604C247.219 120.756 246.502 120.827 245.794 120.827Z" fill="#001940"/>
<path d="M116.758 13.3161C116.62 13.3161 116.491 13.2451 116.411 13.1204C116.3 12.9289 116.358 12.6795 116.549 12.5637C116.919 12.3454 118.357 11.2544 118.883 10.8535C119.061 10.7244 119.31 10.7511 119.448 10.9292C119.587 11.1074 119.551 11.361 119.373 11.4946C119.293 11.557 117.444 12.9688 116.963 13.2582C116.901 13.2939 116.83 13.3161 116.758 13.3161Z" fill="#001940"/>
</svg>
